<?xml version="1.0" encoding="UTF-8" standalone="no"?>
<svg
   viewBox="0 0 448 512"
   version="1.1"
   id="svg8568"
   sodipodi:docname="arrow_keys_fa.svg"
   inkscape:version="1.2.1 (9c6d41e410, 2022-07-14)"
   xmlns:inkscape="http://www.inkscape.org/namespaces/inkscape"
   xmlns:sodipodi="http://sodipodi.sourceforge.net/DTD/sodipodi-0.dtd"
   xmlns="http://www.w3.org/2000/svg"
   xmlns:svg="http://www.w3.org/2000/svg">
  <defs
     id="defs8572" />
  <sodipodi:namedview
     id="namedview8570"
     pagecolor="#ffffff"
     bordercolor="#cccccc"
     borderopacity="1"
     inkscape:showpageshadow="0"
     inkscape:pageopacity="1"
     inkscape:pagecheckerboard="0"
     inkscape:deskcolor="#d1d1d1"
     showgrid="false"
     inkscape:zoom="1.1035156"
     inkscape:cx="195.73806"
     inkscape:cy="256.4531"
     inkscape:window-width="1366"
     inkscape:window-height="745"
     inkscape:window-x="-8"
     inkscape:window-y="-8"
     inkscape:window-maximized="1"
     inkscape:current-layer="svg8568" />
  <path
     d="M 113.0398,241.78953 H 24.934344 c -9.730154,0 -17.62107,8.79201 -17.62107,19.63316 v 98.16539 c 0,10.84114 7.890916,19.63316 17.62107,19.63316 H 113.0398 c 9.73013,0 17.62115,-8.79202 17.62115,-19.63316 v -98.16539 c 0,-10.84115 -7.90197,-19.63316 -17.62115,-19.63316 z m 4.40526,117.79855 c 0,2.70601 -1.97675,4.90828 -4.40526,4.90828 H 24.934344 c -2.428609,0 -4.405198,-2.20249 -4.405198,-4.90828 v -98.16539 c 0,-2.70601 1.976685,-4.9083 4.405198,-4.9083 H 113.0398 c 2.42859,0 4.40526,2.2025 4.40526,4.9083 z M 82.643444,274.30693 c -2.400624,-1.16927 -5.206494,-0.64218 -7.133773,1.3421 l -28.634303,29.44965 c -1.346512,1.38809 -2.117407,3.35142 -2.117407,5.4067 0,2.0555 0.773796,4.01549 2.125271,5.40525 l 28.634292,29.44963 c 1.927376,1.9845 4.732869,2.5117 7.133784,1.34222 2.387154,-1.16447 3.956732,-3.83315 3.956732,-6.74746 v -58.89927 c 0,-2.91431 -1.569387,-5.5831 -3.964683,-6.74882 z"
     id="path8360"
     style="stroke-width:0.290621" />
  <path
     d="m 228.01749,114.08246 c -1.24003,-1.5037 -3.00113,-2.36064 -4.84581,-2.36064 -1.8439,0 -3.60689,0.85902 -4.84599,2.36074 l -26.43156,31.90336 c -1.78092,2.14785 -2.25401,5.27336 -1.20503,7.94831 1.03971,2.6662 3.43473,4.41436 5.80252,4.41436 h 52.8634 c 2.62425,0 4.99989,-1.73482 6.05728,-4.41144 1.04889,-2.67474 0.57544,-5.80098 -1.20504,-7.94832 z M 267.22449,70 h -88.10562 c -9.73278,0 -17.62107,8.791912 -17.62107,19.633057 v 98.165593 c 0,10.84115 7.88829,19.63306 17.62107,19.63306 h 88.10562 c 9.73306,0 17.62108,-8.79191 17.62108,-19.63306 V 89.633057 C 284.84557,78.791912 276.94352,70.000103 267.22449,70 Z m 4.40522,117.79865 c 0,2.70569 -1.97652,4.90829 -4.40522,4.90829 h -88.10562 c -2.42907,0 -4.4052,-2.20238 -4.4052,-4.90829 V 89.633057 c 0,-2.705596 1.97659,-4.908294 4.4052,-4.908294 h 88.10562 c 2.4291,0 4.40522,2.202388 4.40522,4.908294 z"
     id="path8396"
     style="stroke-width:0.290621" />
  <path
     d="m 249.60334,290.87233 h -52.86322 c -2.61573,0 -5.01113,1.74889 -6.30515,4.41705 -0.79906,2.66881 -0.33402,5.79829 1.45916,7.9453 l 26.43166,31.90379 c 1.239,1.50286 3.00115,2.36168 4.84579,2.36168 1.84458,0 3.6041,-0.86215 4.85125,-2.36793 l 26.43164,-31.90369 c 1.78113,-2.14733 2.25409,-5.27327 1.20448,-7.94842 -1.04476,-2.65994 -3.44025,-4.40882 -6.0558,-4.40882 z m 17.62115,-49.0828 h -88.10553 c -9.73287,0 -17.62116,8.79191 -17.62116,19.63305 v 98.1655 c 0,10.84114 7.88829,19.63316 17.62116,19.63316 h 88.10553 c 9.73278,0 17.62108,-8.79202 17.62108,-19.63316 v -98.1655 c 0,-10.84114 -7.90196,-19.63305 -17.62108,-19.63305 z m 4.4053,117.79855 c 0,2.70559 -1.97612,4.9084 -4.4053,4.9084 h -88.10553 c -2.42888,0 -4.40529,-2.20239 -4.40529,-4.9084 v -98.1655 c 0,-2.70548 1.97613,-4.90828 4.40529,-4.90828 h 88.10553 c 2.4289,0 4.4053,2.20238 4.4053,4.90828 z"
     id="path8454"
     style="stroke-width:0.290621" />
  <path
     d="m 370.83099,275.65665 c -1.92699,-1.9941 -4.73588,-2.51567 -7.13106,-1.34972 -2.39558,1.1654 -3.96442,3.83441 -3.96442,6.47307 v 58.89928 c 0,3.19046 1.56912,5.85948 3.96442,7.02499 2.40015,1.16946 5.20638,0.63904 7.13385,-1.34202 l 28.63421,-29.44964 c 1.34635,-1.38808 2.11798,-3.3512 2.11798,-5.40649 0,-2.05539 -0.7738,-4.01572 -2.12612,-5.40525 z m 50.57803,-33.86712 h -88.10544 c -9.73014,0 -17.62108,8.79191 -17.62108,19.63305 v 98.1655 c 0,10.84114 7.89094,19.63316 17.62108,19.63316 h 88.10544 c 9.73035,0 17.62107,-8.79202 17.62107,-19.63316 v -98.1655 c 0,-10.84114 -7.90187,-19.63305 -17.62107,-19.63305 z m 4.40538,117.79855 c 0,2.70559 -1.97649,4.9084 -4.40538,4.9084 h -88.10544 c -2.42822,0 -4.40528,-2.20239 -4.40528,-4.9084 v -98.1655 c 0,-2.70612 1.97667,-4.90828 4.40528,-4.90828 h 88.10544 c 2.42843,0 4.40538,2.20238 4.40538,4.90828 z"
     id="path8490"
     style="stroke-width:0.290621" />
</svg>
